<mxfile host="app.diagrams.net" modified="2023-04-13T07:26:25.373Z" agent="5.0 (Macintosh; Intel Mac OS X 10_15_7) AppleWebKit/537.36 (KHTML, like Gecko) Chrome/112.0.0.0 Safari/537.36" etag="rYDkbC6go7xagpyRm4R6" version="20.8.23" type="github">
  <diagram name="Page-1" id="c7558073-3199-34d8-9f00-42111426c3f3">
    <mxGraphModel dx="1154" dy="549" grid="1" gridSize="10" guides="1" tooltips="1" connect="1" arrows="1" fold="1" page="1" pageScale="1" pageWidth="826" pageHeight="1169" background="none" math="1" shadow="0">
      <root>
        <mxCell id="0" />
        <mxCell id="1" parent="0" />
        <mxCell id="5-N-sKKjPVEW2un69Wxj-115" value="" style="edgeStyle=orthogonalEdgeStyle;rounded=0;orthogonalLoop=1;jettySize=auto;html=1;entryX=0.5;entryY=1;entryDx=0;entryDy=0;" edge="1" parent="1" source="5-N-sKKjPVEW2un69Wxj-110" target="5-N-sKKjPVEW2un69Wxj-116">
          <mxGeometry relative="1" as="geometry">
            <mxPoint x="267.5" y="400" as="targetPoint" />
          </mxGeometry>
        </mxCell>
        <mxCell id="5-N-sKKjPVEW2un69Wxj-110" value="&lt;p style=&quot;margin: 0px; margin-top: 4px; text-align: center; text-decoration: underline;&quot;&gt;&lt;b&gt;CWA&lt;/b&gt;&lt;/p&gt;&lt;hr&gt;&lt;p style=&quot;margin: 0px; margin-left: 8px;&quot;&gt;&lt;b&gt;Channel-wise Attention Layer&lt;/b&gt;&lt;/p&gt;" style="verticalAlign=middle;align=center;overflow=fill;fontSize=12;fontFamily=Helvetica;html=1;rounded=1;fontStyle=0;strokeWidth=2;fillColor=#E6D0DE;" vertex="1" parent="1">
          <mxGeometry x="167.5" y="430" width="200" height="50" as="geometry" />
        </mxCell>
        <mxCell id="5-N-sKKjPVEW2un69Wxj-118" value="" style="edgeStyle=orthogonalEdgeStyle;rounded=0;orthogonalLoop=1;jettySize=auto;html=1;" edge="1" parent="1" source="5-N-sKKjPVEW2un69Wxj-116" target="5-N-sKKjPVEW2un69Wxj-117">
          <mxGeometry relative="1" as="geometry" />
        </mxCell>
        <mxCell id="5-N-sKKjPVEW2un69Wxj-116" value="&lt;span style=&quot;background-color: rgb(94, 169, 225);&quot;&gt;&lt;br class=&quot;Apple-interchange-newline&quot;&gt;&lt;span style=&quot;color: rgb(0, 0, 0); font-family: Helvetica; font-size: 12px; font-style: normal; font-variant-ligatures: normal; font-variant-caps: normal; letter-spacing: normal; orphans: 2; text-align: center; text-indent: 0px; text-transform: none; widows: 2; word-spacing: 0px; -webkit-text-stroke-width: 0px; text-decoration-thickness: initial; text-decoration-style: initial; text-decoration-color: initial; float: none; display: inline !important;&quot;&gt;Temporal Encoder&lt;/span&gt;&lt;/span&gt;" style="verticalAlign=middle;align=center;overflow=fill;fontSize=12;fontFamily=Helvetica;html=1;rounded=1;fontStyle=0;strokeWidth=2;fillColor=#5EA9E1;shadow=0;" vertex="1" parent="1">
          <mxGeometry x="192.5" y="360" width="150" height="40" as="geometry" />
        </mxCell>
        <mxCell id="5-N-sKKjPVEW2un69Wxj-117" value="&lt;p style=&quot;margin: 0px; margin-top: 4px; text-align: center; text-decoration: underline;&quot;&gt;TWA&lt;/p&gt;&lt;hr&gt;&lt;p style=&quot;margin: 0px; margin-left: 8px;&quot;&gt;Temporal-wise Attention Layer&lt;/p&gt;" style="verticalAlign=middle;align=center;overflow=fill;fontSize=12;fontFamily=Helvetica;html=1;rounded=1;fontStyle=1;strokeWidth=2;fillColor=#B9E0A5;" vertex="1" parent="1">
          <mxGeometry x="167.5" y="270" width="200" height="50" as="geometry" />
        </mxCell>
        <mxCell id="5-N-sKKjPVEW2un69Wxj-121" value="" style="edgeStyle=orthogonalEdgeStyle;rounded=0;orthogonalLoop=1;jettySize=auto;html=1;entryX=0.5;entryY=1;entryDx=0;entryDy=0;" edge="1" parent="1">
          <mxGeometry relative="1" as="geometry">
            <mxPoint x="268" y="270" as="sourcePoint" />
            <mxPoint x="267.5" y="240" as="targetPoint" />
          </mxGeometry>
        </mxCell>
        <mxCell id="5-N-sKKjPVEW2un69Wxj-128" style="edgeStyle=orthogonalEdgeStyle;rounded=0;orthogonalLoop=1;jettySize=auto;html=1;exitX=0.5;exitY=0;exitDx=0;exitDy=0;entryX=0.5;entryY=1;entryDx=0;entryDy=0;" edge="1" parent="1" source="5-N-sKKjPVEW2un69Wxj-125" target="5-N-sKKjPVEW2un69Wxj-110">
          <mxGeometry relative="1" as="geometry" />
        </mxCell>
        <mxCell id="5-N-sKKjPVEW2un69Wxj-125" value="&lt;span style=&quot;background-color: rgb(94, 169, 225);&quot;&gt;&lt;br class=&quot;Apple-interchange-newline&quot;&gt;&lt;span style=&quot;color: rgb(0, 0, 0); font-family: Helvetica; font-size: 12px; font-style: normal; font-variant-ligatures: normal; font-variant-caps: normal; letter-spacing: normal; orphans: 2; text-align: center; text-indent: 0px; text-transform: none; widows: 2; word-spacing: 0px; -webkit-text-stroke-width: 0px; text-decoration-thickness: initial; text-decoration-style: initial; text-decoration-color: initial; float: none; display: inline !important;&quot;&gt;Channel Encoding Layer&lt;/span&gt;&lt;/span&gt;" style="verticalAlign=middle;align=center;overflow=fill;fontSize=12;fontFamily=Helvetica;html=1;rounded=1;fontStyle=0;strokeWidth=2;fillColor=#5EA9E1;" vertex="1" parent="1">
          <mxGeometry x="190" y="500" width="150" height="40" as="geometry" />
        </mxCell>
        <mxCell id="5-N-sKKjPVEW2un69Wxj-180" value="" style="edgeStyle=orthogonalEdgeStyle;rounded=0;orthogonalLoop=1;jettySize=auto;html=1;fontFamily=Helvetica;fontSize=12;fontColor=default;" edge="1" parent="1" source="5-N-sKKjPVEW2un69Wxj-129">
          <mxGeometry relative="1" as="geometry">
            <mxPoint x="267.48" y="170" as="targetPoint" />
          </mxGeometry>
        </mxCell>
        <mxCell id="5-N-sKKjPVEW2un69Wxj-129" value="&lt;br&gt;Shoulder Joint Angle&amp;nbsp;&lt;br&gt;Decoder" style="verticalAlign=middle;align=center;overflow=fill;fontSize=12;fontFamily=Helvetica;html=1;rounded=1;fontStyle=0;strokeWidth=2;fillColor=#5EA9E1;shadow=0;" vertex="1" parent="1">
          <mxGeometry x="192.5" y="190" width="150" height="50" as="geometry" />
        </mxCell>
        <mxCell id="5-N-sKKjPVEW2un69Wxj-130" value="" style="rounded=0;whiteSpace=wrap;html=1;shadow=0;labelBackgroundColor=#5EA9E1;fontFamily=Helvetica;fillColor=none;dashed=1;fontStyle=1" vertex="1" parent="1">
          <mxGeometry x="160" y="420" width="220" height="70" as="geometry" />
        </mxCell>
        <mxCell id="5-N-sKKjPVEW2un69Wxj-133" value="" style="rounded=0;whiteSpace=wrap;html=1;shadow=0;labelBackgroundColor=#5EA9E1;fontFamily=Helvetica;fillColor=none;dashed=1;" vertex="1" parent="1">
          <mxGeometry x="410" y="400" width="190" height="120" as="geometry" />
        </mxCell>
        <mxCell id="5-N-sKKjPVEW2un69Wxj-134" value="" style="endArrow=none;dashed=1;html=1;rounded=0;fontFamily=Helvetica;entryX=0;entryY=0;entryDx=0;entryDy=0;" edge="1" parent="1" target="5-N-sKKjPVEW2un69Wxj-133">
          <mxGeometry width="50" height="50" relative="1" as="geometry">
            <mxPoint x="380" y="420" as="sourcePoint" />
            <mxPoint x="430" y="370" as="targetPoint" />
          </mxGeometry>
        </mxCell>
        <mxCell id="5-N-sKKjPVEW2un69Wxj-135" value="" style="endArrow=none;dashed=1;html=1;rounded=0;fontFamily=Helvetica;entryX=0;entryY=1;entryDx=0;entryDy=0;" edge="1" parent="1" target="5-N-sKKjPVEW2un69Wxj-133">
          <mxGeometry width="50" height="50" relative="1" as="geometry">
            <mxPoint x="380" y="490" as="sourcePoint" />
            <mxPoint x="460" y="355" as="targetPoint" />
          </mxGeometry>
        </mxCell>
        <mxCell id="5-N-sKKjPVEW2un69Wxj-152" value="&lt;meta charset=&quot;utf-8&quot;&gt;&lt;span style=&quot;color: rgba(0, 0, 0, 0); font-family: g_d0_f3, sans-serif; font-size: 13.7473px; font-style: normal; font-variant-ligatures: normal; font-variant-caps: normal; font-weight: 400; letter-spacing: normal; orphans: 2; text-align: left; text-indent: 0px; text-transform: none; widows: 2; word-spacing: 0px; -webkit-text-stroke-width: 0px; background-color: rgb(255, 255, 255); text-decoration-thickness: initial; text-decoration-style: initial; text-decoration-color: initial; float: none; display: inline !important;&quot;&gt;ansformer encoder layer&lt;/span&gt;" style="text;whiteSpace=wrap;html=1;fontFamily=Helvetica;" vertex="1" parent="1">
          <mxGeometry x="690" y="680" width="190" height="40" as="geometry" />
        </mxCell>
        <mxCell id="5-N-sKKjPVEW2un69Wxj-154" value="" style="shape=image;verticalLabelPosition=bottom;labelBackgroundColor=default;verticalAlign=top;aspect=fixed;imageAspect=0;border-style: solid;border-width: 1em;image=data:image/png,iVBORw0KGgoAAAANSUhEUgAAAggAAAC/CAYAAACbrCSHAAAAAXNSR0IArs4c6QAAIABJREFUeF7t3Qe4NVV1N/DtZ4yJ0ajRxJhgFFuUCAIqNqrYgqCigFiCBqxYUFE0ooKKooiAYO/YEKxgQbFjVzAWjA0sqAR7ibFEDd/zc3/7e4fh3HvKnTlnytrPc577vvfOmdmz9tpr/1e/1EUXXXRRihEUCAoEBYICQYGgQFCgQoFLBUAIfggKBAWCAkGBoEBQoE6BAAjBE0GBoEBQICgQFAgKXIICARCCKYICQYGgQFAgKBAUCIAQPBAUCAoEBYICQYGgwHQKhAVhOo3iiqBAUCAoEBQICoyOAgEQRrfk8cJBgaBAUCAoEBSYToEACNNpFFcEBYICQYGgQFBgdBQIgDC6JY8XDgoEBYICQYGgwHQKBECYTqO4IigQFAgKBAWCAqOjQACE0S15vHBQICgQFAgKBAWmUyAAwnQaxRVBgaBAUCAoEBQYHQUCIIxuyeOFgwJBgaBAUCAoMJ0CARCm0yiuCAoEBYICQYGgwOgoEABhdEseLxwUCAoEBYICQYHpFAiAMJ1GcUVQICgQFAgKBAVGR4EACKNb8njhoEBQICgQFAgKTKdAAITpNIorggJBgaBAUCAoMDoKBEAY3ZLHCwcFggJBge5T4A9/SOmii/I8/+RPuj/fIc4wAMIQVzXeKSgQFAgK9JgCP/lJSm94Q0oXXphf4oADUrra1TJQCLCwvIUNgLA8WseTggJBgaBAUGAdCvziFyl95zspffKTKX3wgyntsktK55yT0le/mtJf/mVKN7xhSne8Y0p//dcpbbZZSn/6p0HONikQAKFN6sa9gwJBgaBAUGAqBd7xjgwC/uM/UvrmN7OV4F/+JaW73S2lX/86pW9/O6Uf/zild74z//1nP0tphx1S+pu/ySBiq62mPiIuWIACARAWIFp8JSgQFAgKBAWaocD//m9K17lOSne9a/75z/+c0t/+bUqXvezF3Qmu+93vUvr971M6++yUPvzhlL7//ZTe9raUNt88petdL6XHPjbfA8D4P/+nmfmN+S4BEMa8+vHuQYGgQFBgRRT4r/9KiUvhy19O6SlPSenMM1O61KXmn8znP5/SD3+Y0vvfn9Jb3pKBxT77pLT33ild/vIpXf3qARbmp2r+RgCERSkX3wsKBAWCAkGBhSlwxBEpnX561vZZDx71qIVv9ccv/uY3GSicf35Kr3hFSt/4Ro5nOOWUlP7hH1K63OXyJ8bsFAiAMDut4sqgQOcpIC3sP/8z+2mnDYFe1752RIVPo1P8vVkK4FHugnvfO8cZ7LhjSn/+583yIbDAFXHccSl9/espXfe6Kf3VX+VYhStfOfN9gIXp6xoAYTqNOndFyQ9mjuNnW8Qs17mXigktTIEicP3EG0cdlYO6CMK1xn//d0pXvGJK+++fhWXw0cLkjy/OQYGf/zylT3wia/e0/Ne/PqXrX3+OG8x56QUXpPShD+VAR64I+4O8fOADI7BxFlIGQJiFSh26BoM/61k5opd/7Z73TOkGN+jQBGMqS6eA6G9mVJHd+OOzn03p6U/PEd5rDabYk09O6Uc/Sunv/i6lf/3XlP7pnwJsLn3xRvbAL3whpZe8JKUrXCGlv//7bEEAVNse9gWeB0xOPDGlvfZK6Xa3a/up/b9/AIQOrqHAnY99bPLEFA556UtTOuSQlD7wgVxpbPfdcwSvSN6wJnRwQVue0mtfm9JHP5rSbW6TA7QI3512SunSl177waLBAYtzz03pjDOyudV35JZvvXXwUctLNtrbv+99Kb373bnw0bWuldKf/dlyee1Xv0rpCU/Ibg0plDHWp0AAhI5wCBMYc9tnPpOF9mUuk4uB1Ae/GuQLecsZfuYzU2Iu9n3RutKDHv/4XFQkzMYdWdyWpsGPCyA+9al57ffbLwOE4nqa9tjimvjKV1J6wQtSElXODLvttvl+d797Sje5ybS7xN+DAtMp8LWvpXTssVmD33LLlA4/PFtAlz3w/BOfmGMSWF/Lfln2PPryvAAIHVmpz30upWOOyZYAebyE83pVwoqlAMMLyDnrrJRswtNOy2lDvqvi2LOfvVyE3hFyDn4aQCEf7otfnHPBX/nKlHbbbfF0rlLz/otfzFXsuCkI8Kc9LYNV1oiwTg2erVp7QeDgIx9Jac89MwDlzlrVIGe5OfDzIx+Z0oMetKqZdP+5ARBWuEaE8k9/mg92OcACeA48MPvmFh1MaN/7XrYq3P/+KR12WDYbC0Rbhq9v0XnH9+ajgEyFF74wW5kUlrHGzLVNjU9/OptiPUeMyzOeka0Kf/EX67sumnp+3GcYFCCH+P8VMOLCute9Vv9eLGU/+EFWplhhuWxjTKZAAIQVcQb/L3Cg3vgb35j9cdJ+7nSnZgQ9V8QJJ+Q4hV/+Mkft7rtvaIErWu7GH8tU+/KX57iDXXdt/PZ/TEPjttI0B8i80pWyOfbWt85uLP8X87JenEPzs4o79okClJXjj88Wzo9/PKWjj+5W5gCl7Mgjcy2GGAEQOsUD4giAAvm/3AnQdRvjf/4npRe9KCWmY4cJoc7ER7BHjEIbFG//njSyL30pR2PTyNqOE1DWFqDlyvj3f8+8w5LAwiADIkZQYBIFNFliEZUhA1BSfrrUXAnI3mOPlGRWGCEPL7mKYUFYwd6WpcCNQPDy8zIT8/O2NfiToWRIXnzCP/5j3qi3uEVK17xmSle9av7E6D4FWIPUOXBYAwpPelJew2UMVgXuKzUWTjopgxMWhRhBgUkU0FhJ6WNxMl1s0czCIWCS5Zb79R73yK66GJsoEABhydxAyEKsImgd1ssYDpLf/jYl1gSmPmZj+e8yJmiD0toe/OCoLLaMtdjoM1SFU5b23/4tl4/dbrtmXFLzzAs4EejFRXbTm+bgyBCs81Bw2NfKipGmzX2KRwW6dtEVJQbs7W/PslDDJ6WedYaMEQBhJTygopfiNIISIVboetnDpiiZD2qWl4h1B44gtBjdpoBIcKmtBJso7FVkFhSgaS5cV7JlaF/cZdFBr9v80/bsyBYpsxQRqYTAIxC7Cj6d5V3NV6zN4x6XY3mA7xgBEFbCA0zDMhV23jlvHvEAqx4AgiBJQYxcDzG6TYE3vzmDg1e9arXzFASr2JIiSzIcaGFSdBXBiTFeCnBjqvSqiud975sDW7toPaiuEOuqbpKyddQSiREAYSU8INVnm21ymc+uBOtwdyjQZE7MxTG6TYHnPz+lb30r17fowuAyk8omHXL77XP6WIzxUkAJ+Oc+N9c5YFXqw2ARe85zcnG5hz60DzNe3hwjBmFJtBYHoCCHQiHy1rtiiuXTlge8xRYp3fzmuV4C1B+jWxSgsfuomsg9xSTapUHIag7FksDVEGN8FGBREsCqgBewyL3Qh2HeMr0AXVVoY2yiQACElrkBMKBV8ffLA374w3Md8K4MiF+6nPgImukb3pDBQoxuUUANey2c3/rWXGZbkGvXxjWukYPTBKbFGBcFAERZC9Jvv/vd7F645S37QQPAWz8TsWHcZTECICyNB3QQ4y+WscAX9+hHp3TDGy7t8TM9yOaGnu9zn6yhtp1XP9Ok4qL/TwFmfFYnZls97QGEZaU2zrMMXFSqO97sZvN8K64dAgVkRt3lLtlNSX7c/vbrdxPt0jtT4sT2KFcuBmGrrbKM7oqVd5W0CgtCy9SHSqWEieT10WehqybYvffOFo4dduhu1HHLy9XJ2wts5Zpi6aGld3UohMPvrAgYIBOuqq6uVPPz4lraZ58cz6TSZp+GTAYKnLmz9Ebad1gQlsa/0sCk/Rx0UI6S7fJQ8cwmv8MdAj13aZ3OOy+lgw/OBWeudrUuzezic2F9Ur7WHFUHjXa63V2rpmemgJY156pssidI0/Nc636sCHo0nHJKShdemNLDHpZB7thHWBBa5gDFiESey13vOrK2KaRg0la7nprU8rJ16vaf+lQOopK50OWKl+JZZDNogsMtoq1ujHFQgCKkM6JYma7WPJhlJQAE1oSHPKQ/LpJZ3mvRawIgLEq52vcIRxXElMKtDkE7QII4hK6bXEXwClBUQreLpVEbWqre3IY2LltBxznme/79rnfkFM9CyDow5MPHGAcFVE3En9a+z+PUU3O/kQc8YGNddftMg+rcAyA0tJI2h+56+ipUtW+gYPfdc8OSro8jjkjpKlfJbaLb7A3RdTp0ZX4KIqlWqIiVzICu1M5Yjz4iwlkQdBF93vO6QsmYR1sUYDHgQhUnI7jv2GPbetJy7qvQlyqQ+++fm+mNfQRAaIADBLkw/wIDupf19XC1uTWSAmb43zSSirE6CrzpTVmbecxjco2BPgyuhfe+Nwd8CaqMMWwK6OhJZtz5zrkSaxeza+ZZAcDW5373y9Vuxz4CIDTAAUp1ijHQ+pb23VcfnFQfJjZlUgVUepcYq6OA3GxuK30ytFfuwwCWP/rRHHfzmtf0Fyz3gdZdmKO4JdlZQylRjHff9a6cSty1dPRVrHcAhAaozrwmlRGC5r/v69ClTwtq5ZfV2IekY6yGAjRxFem+853c0rlPMSGf/nRKxx3Xj5iJ1azucJ4KGEiP3mOPYbyTeDGKEjnOZTL2EQChAQ6QFkNjUiBkCN3ABFYqmsS8HWM1FBDspwQ28y0LQp8GvjnkkE2d/Lbdtru1P/pE1y7OVXEkLjC1U4YwPv/57B5TzwPfjn0EQJiDA+TJCsgRVc6UWsavfpUrEaqSqEhM38cFF6R0q1vl0ssxVkMBPPWSl+RnSx/r0wCYCVlFwq5whZxT3nffdJ/ov8y5Sos+4YSUttxymU9t71lf/WquJvuzn+UgReXxu1rYrj0qbLpzAIQ5qKwWvlRAATlXv/qmLwILOoFd//rdT0Ob5XX1R1exj6Dvk2l7lnfrwzXysAX6MXfSzGQx9Glwj+ChT3wipfe8J6UDDuh+kbA+0bcrcyX3aNmybTbbrCuz2tg8xJOJ+1HP41GPyhkNfQkQ3tibT/52AIQ5qHrOOTnW4LDDhq0R2fgCLrkaoprYHAzS0KVazgIJrDj8uze+cUM3XvJtuBpe97ocEX6jGy354fG41inwm99kgKCQF0vRkAYZqK/E297W7fLmbdM8AMIcFBZ8paGH1J4u18Sf45XWvFQEr5zgMA03Qc357iFVdtddc+naPg8gh5tEINs22/T5TWLuVQpwp7IOMcdb309+cphm+J12yoG2Y+5uGwBhjr2vWpgiMI99bNawhzxufvOUnvvcHMmrtnp0NlveamuVu+++uYNjnweXHIsbgBAdHvu8khef++c+l6tkKtzFuvWIRwzTFal66ZOfnBJZONYRAGGOldfvXGU7vqkuN82Z45XWvHSvvXKpUfUQBF5G0ZAmqDrbPbgVBPbRYPo8+HGf9rScEcNdEmMYFGBJfctbcq0ALciHOmQyqAUzhMDzRdcoAMIclFNnXAYD4d3lpjlzvNKal6qB8NnPpiTtRyoTwBBjORTYbbccSc0H2ufx05/mXhIAwo479vlNYu5VCnzsYylRlliGut6hdiMrJ7iWFWHMXUkDIMzBQRouiex/0IPGEdmqARUfI0vCUCqlzbHcK7tU6hjfZ98ruclkAKYVnRFTEWMYFNDSWQ8GrrDrXW8Y7zTpLQ46KAdhes+xjgAIa6y84h/f/e7F/3jeeTnFEeNIaxz6kAusAZWeDEBRjOVQgL9eH4a+B4hKd9Q2Vz0Erc4F9w4lX345nNDNp6iyqiSxni2bb97NOTYxq0MPzensQO5YRwCECSv/hz/kfgRqyVc76El9YVKjUY8haE9hKFYT9OhbsZ4+b2h+XVqazqB9H+eem9L55+eAV4GX97xn398o5s+9IA6BCV6X0aGOI4/MfXXUvhnrCIAwYeX5TpnOfvjD/jZeaoKhmYhf/eqUfvKT/pX7beL9V3EPIPQ610npi1/sT4OmWeikyqheJWGJmoVa3b5GbQCxSQL4KEtDHS96UQa2gLpeE7LXxjYCIExY8W98I6eYyfMd89APQKEbJZef8pQxU6L9d1d0RtT/L3+Z+3l8/evDslJpOHXFK+a6/TH6TYE3vjFXG1Thc8jZXCyo3MqsJWIuBKmPbQRAmLDiOhryOykGMubBtfCGN2RtQd5zX9tY92ENzzor51zTVi596dzJcUgD/+gvEUCz/6talAbWoKFnc1kt58DTn57SO97R/7Wb9w0CIEyg2Pvfnwu88LWNeTB3y3fmD3/GM7LJewyxF6tYc/XsTzoppSOOyEGhYmCGNJ73vJQUTnrOc4b0VuN8F3FJrF0CUK90peHTgILEReZcGNsIgDBhxUWQq5jI/z72cfrpGRxoRCUnmOtlzN3N2uIH5sszz0zJQTrEoUS5krwvfvEQ325c76QNuRRoPUOG1oNh0koKtFUUaowW5VEDBOlX8s2lY1UH/5qAquOPH9fGn/S2P/pRSkqr6i542cvmbIZo4NQ8XwCjAhOf/ezm792FOwJAgtu0gY7RTwpwOf785ym97GV5/tywl7tcP99lnllfcEEOUhSLwP3X1hAUzg3HgkjWdmGMGiCcfHI260KH1WEj6EEw5Cph8zIfV4PufOquDyH9bt73b/t6Bam+851cmniIg7tOVDhXSoz+UYBMfNe7cjbT736Xy83LYhhDO3hZXMotK7PfNCCSKcdl84tf5Pbuau8ozCS+owu1dkYNEJ7//LwgAlDqQ0BeBOVtogrh8OEPZ8Gg6E2MZikgnUqXPMWEhjjEsQhQ1PAsRv8oABQIWP7CFzKIBQzGAA6slIJxXKtAblPW0+99L6ePlzNIQ6itt05JNpOYBxkiXagxMWqAgNF1Khxjfuu8ImpMnSznpU0T14vyv8xlcjDUEAft6MEPTunjH8+Brt41Rn8oACCceGK2co0tE4VbRT8a7rEmuvj+4AcpaQQFeHAnAF6lnoRsJgX6NGwT98Vau0pFddQA4eCDc6wBtBZjfQoI0Hnta3NVsWtcI6jVNAUOPzznlIsMH+JQ10GZcgBIapyA12qV0iG+85DeSU0UsQcOtaFaudZaL+b/ffZJ6QUvSOna1974qmr4x2pNKdhss4vf7/vfz79nqWFlYLVdZUbTqAGCWuJMRxY/xvoUEKjIHPbEJ/a/R0AX11rXQ82Z7ne/Ls5u43MSgHXccTn6XZdQWtKQq/BtnGLdusNvf5sDusUiUKzGNAAEcWqyuZpob60bJv6nFExy1yrQJFhRF1S1UXbYYXXUHjVAULHuwANTuv3tV7cAfXmyqpI2yGGHbRxF87MZzMxtRgX3hbbmqQHYrW6VTY9DHjQke+6Zzxx2J8ChraE9K05GLZSxNS9yYO+/f46/0khN7MVGzP4KLrEMUArWKzTFmrjddrkp1qrG4AEC0xiTjnLB9cGXJi/bIsRYnwLf/nZmaIV8rnvdxaklle+oo/IGu/GNx6eNrEU5bi5md77OIQ9R21JlDzkkr3+MflAAQJCCS+N9wAP6MeemZil42CGtDLrsNpr9jW40/93xvkyw97xnU+zbeoWmuBoELGpwxrXRhPVi3lkPHiBceGE+1DB4PQLVggMJkbY3nW0E1jjEBJppZIVhF0HR2ke/+905CEfam8hg96FZMkNrr6pm/9gGEybBc4c7DPvN1dUANKXI3fKWG39XQXP4iL+WNnb00Ru/Z9zhkhSwN1kQ7f399hsXhbhV1MbBa9J0r3WtHE8jfoBFZdbBciCd2ffs8zvecf16BwJ7FaUSq8Pl4LvLzhwZPECg+T71qdm3W0d9oqnlmi5y0M3KFEO5jg+SiQ0CBrpslEVQtBgGqBkqpokIfFJh74QTsn96p53yv8cwRIafcUYu4VqEx847D/vNpXZp3HS3u6W0664bf1dNdOSRux8Aq9FaF/LHN/5m3bpD6aOx7bbDd4OtRXml59/85hyLxRrgTGENm+XQ/v3vcxaI4nwCvdVTcPCvd/b4DiUW+D300JSOPTalzTdfLl8MHiDoxsVKQChBv9VhwX0mjaiDsDYjQr+68ikeMusotKYl87Pf4hZ5c2F8VRrR2/oQ9rrFjWEARLQywpebyyE3dOuJKHjpxYCQ6nQbHSU3XwEfPKX42SLAdaPzGPr38ai9CsCL3Rr7YLUq1rBZUnbRTwM2lux5O5qSE8AvOSmQWT+T7bdfzgoMHiAIrlP9T2BN3ZUglYQmXG9A5DDjH+UTrg6HmBQ/frgxNy2i/e+55+zZH1Aw0y+TmYY9qjIyBxPqu+2Wc+O32CKlm9wkB+uNpZgOSwxriYOticNyOSJjY08REc63ypfbREAmbY6P2P7Glz6CjmloapzEaIYCaKxeDD6V+TX24bAnyyies6TrAsaspXpXqJI4z3AeARbkhUBRrjmZd8uwfA8eIHzpS9mUCXkpSlEd/Ef8afXYBKYdmiy/eHUQbgL07n73yfe6znXG0d1Mk5Ytt8zxCLMMtcyl62BswIuZEmgQyX7++bkXhiAgmh/hDrgtg/lnmXub16jiKbd6xx2zP3IMQ0S4dEd+2I1EZ3N54SHaFJ+w8rSCXwUki4/xOzVOrnzlbJkKsLAx7kJrFr973Sul29xmY/cawre1vBZwzX09DSAAV+IXFFpyDgGxiwxAgcxUuImc5G5o2+UwGICAeIJJ6i4DWqvCHnouCIDbyHDQCRrR6rRqQXDAQYg3vWk+OKvDdZ5LSPFV+X/fDz+omYbGAjDLkEEiAprPTpqQAYTxx/kwq9MoATiWBDUXdIycxbc3y/O7eg0NBD8RuLe9bVdn2ey8CEtN0OwhpmqR2QpEzTNkJul86YNXBDyyRAFc/v/Tn+afAuv8m9brGdtss9qiM/O8Y5euJVcpRw9/eI4buvWtc3py3+XYRmis+ZjYKQf2NIDASog38SJwsMsuiz9ZyXJNz8gOvYJY49ocgwEIgIAAEsKjDGBBgAdtw9+aOHAgac+oAhEAQSMP3b7qzMI0xIfEtMSsTtPpeyVCGiCwRGObZQAB2hgDCKwH6w1WBoIcrfbdNwOGoQ7VBbVBFtPBtzuGYe8IzJTqJTOGRjpvaqfvcS3QpLhn0I7brxxY9iOfLzCidTsZwNUoxuPe9x4DlZt7R3R0CJFhgmntTeWGAVoHXVe6Djb3xrPd6dRTc0wAC9Z6NHBOsBqwvlzzmllBWq/2wbSnU6zwtfOGywJYaHMMAiAgGoEhDaRucnFgC6Zru4StjcSKYC7VQSAyo4t6FUDlMNCYA7Mwf/ZxaE2MQWm/s4xzzklJeiOTMkvBesN9aZcOEBaZttdtlvm3dQ33lyBFIFJjFm6GamU1VhTCuO4aa2s+y7gvgWmvCPBiSVBvngWgXjDLnnG405S4nqSBsloJOpZyhj9YIKaZu2m+PlyGDjmR4DGmU4Assw9lLfGZCyrlikVvayM/3//xq8ykaVr09Cf26wqp2mKpWAfWAwjArIBCMrBJGsnWkSp+9tnt0q13AEFqWN2VQAAIgqNBEDbVQfBg5FUfxgQjNwfkSfPhJ+V/7uNQu0Akrlxgh/hee61vblRal89ONbJZi33w1wELBPpQOsfhW4ARv1p7Kbh8k/yJQACTOf4ug4mc+4XFSQCnA3FIvnQWKCBIhHZdyH70o7n3h7177rlZAWCFY94GmrjsaGWzdryz74CEt761jztu+XPGn1JvgVcgQVyQA472y4rKhQNwkbuAHhA3psqoH/hAShQlhfYmAQT0od1zr7K2spo1OawL6yqrWLGc+QnAibmbJbNilvn0CiAwVWv2Iuq9OkqUJwLVBajDBfMyidUzD2gkfGqE1DIG4W9h5YKLVeDD14iDj3SVDTnmfXcAh8uGJmFNmLrW65POVwdtAwj8ZrMMG4wJ05oyQ4t7mNdXPctz2r6G71GuPm3M4eSwK+4ph79AOo1bWFa4wqquKwIYHdwDYMLDgAQzeb3JS9vv0cb9HSxAE4BQLzhDADPhsv4dc0y2VrE8iN6W5WJf2+uzZhOhIxeXnzEmU8DBTzPGo6efngOugTG/Y8mpDm4cvMr9wMxuPVh5xlKoSj8FoFU2wyTQjrdp9/oo2NttVOu1RjIbymCRtB8A5ya6TrrvygHCWnUICFQHSzUQho+fViWKvhpwCKURIkw59WY3oqYJ5i9/+ZKbAtCgkTD51wGHaPtJnbuaCszhDjEnG0/akM0F9TWF/JoUgqWGAe2XYCiDmVHaDSFRTSFltSnmNPSiGWNmAKFei2K9eXouge5wkCHClwc0LAvQbYSGaAUQ0jK8u/k78AqYxV9AFQvC7rtn4CSboRT5qfMZQEbgMK8TxkCTZke+h960mC72tajvb/wDWNJKaVVM1EzYLHylcIx39zf16tXNkC2DjmI2COVFrABM5taA3ADOBc0OAWRthEfL2thfLHXoDhTwk7PgkH/WhCbMdYteYomqpdaLbGANk92lSiaLFxqz+PRt2LesJfal+TvYJ8WuacssFouVqy6P0PHIIzPodVYta1/quGtvcD2w1JrXRs+rlQMEh75DvD5K57BqCqJNzlxTN2UBDRZBIQ/RzLMOjADp1YWY+YgZ4FurDxtF/EATiy5egRnPIcuCID7B4nZhY7FysHYIiIFSWQ1E0PKpFaYTlQvkVIUBWnoXoIdwgWQdbD4E/bxpOZ7P+uCwoIk7KJnbuzzwI6sKIcudABhxDxC8CqywhDjc8T5wRQNBY35eH5YFwWCTeMw6yMpxX2tULDdcPu4/q0bdJv3wNd4gbMUamGcBlqwArCF+usZ7sKLY5w4YwhhoIID5bdU3YOVTxdP/gQuCeZHBEuMgI9S5xZqo5LjIPLrwHfS3d8lUctPBvvXWGehbE+4fwaOAp/oHTOlkMm2YaxGQrVp98Dx/PODHEqH2zDyF1LpAE3Mgp1hBgHu0ucpVJlsIWPfwEjoVZcjeA6LIOMX5uL8OOGB5e5Ki7Czxk+xwtm3UkjARINjgDsh6wF3Ti4hJMaHI9jrSYUplFagyIYFbUuzqTS5oprRwWsJGB1Mv83+9DgKG4YNz+NVJjl/KAAAgAElEQVQDx9YKKPNeDvy1KuQBIzYqbRwCZAWh5YjMXs9sv9F3LN8HAjxfpHd1mAvzLyGODtbBOvmUDUFYq3poDYtWASAAPf7m+77nkLfWDsmS8lk1ywF8NMhpEdGCHB0iNO4uDvzBKkXAOoS4Amj4NDF0BgBl2xAkgJYYC/8HnAhY2rHvCsRTMIpwYjWZlPXiwGVlI6QAKP9nzsRnXGqrcFk5wAkn7wB8mxNNDB9ULWN4hRkU4AM60QUP+o5r0Qe48HGQix2wv/CiQE58YG/gmXkBkXvQggEt/lqWHEJ0o5pWF/lxvTmRpawoDhKA1WFC3pND8vvtf5YddMKXAkal9onlQC8gXfdRchCvFfqRZ+S2Pc8ihv/J5C7Tl8yyH4FSH/Kf5o/HWOyqVtNCU0GCaiCgQwHy9j+epKTak/YtiyfQUM3e8jwAw56fNJxt6Dovzewd8oBcAFwomyU7CvB233mtrxMBghdVN9pLtDkwE6QGec5CDAJFoJ9OcLSOZQ9MxNRJE6nP1wGIoerav01nQzlEoW4LP0kzRGtlY5lRbVAgBGMp+CKVq+mB6T3TYcSPRhhXAzn9m3nNfB1SDqv68F3CtpROLn/nUkAja+tdxSnw2TkoPRejVoFfoVHVWgSECMKppgQp0ctawWfdxUF40j4Eblo7QsZeEqTJPyjynumcRq1ttvcGmACEavaC9SCogXR0t/60EhaCSS4oBzOgRpj7Dn6T/YHO+LFNt5X19Fz8w1Li2Z5rvtbb+9mrk/y0gKSDSjor0IDXACmgCa3EIdBYgU3PMKw/PvEMwZ3TNCR7Eq+V/VpqKJx2Wt5rACcgN6/g7CL/TZuTtQLgWK4AWXsLj5a97XBhiUKvUunyU5/Kh91rXpOtQSwEDkf8ibfscfcATP0fyBcjYm3xooNJ7Ix1YFHoWkYOMAvMMM3jCbzKsgS0rqewoIGAeAHbhXdYAVk4yTs0ILt97H2WhDLQrMQi1QGuv+Ft+8aekfZdnQe5iM7TLNjOb3MoQbz2DHA9awxYmetEgADZYCKEa3vQ/Gf1S1tEpmbmRmb+VQzoshppXuZAyxZPUK3D4G82FWBjkX0sEKBAy6vXBCj3RnuLCxFCgw4dTDONKeahB98+rcF8MeOBB148jgBzTqsbQXDTLmwonzI/4Aao8D7uQTC5n0MLgzvQqqgc8PKeVVcP8MidVAVc0L2Dl4mzDAIHHf1+2cVbSlZCEZr4kxZPcHhPHwFetC9C2NqLkaGVKJgixdEGlupXTYECHByUcvfxDkABcPET2+j1dSlxDeZDOJXMD0KZFuMQdWATNtPWdB4eci0+AmwJWkAISLJmswQQ0lK5XMwfmDj88E1PRzP7gKkakMUfhWfIJ9/FH/UqqNX5u695oG8R4oCC7zCnAyEOSlogOnXVMoUPHNQOYXvL+9sLrH60f26pabn4DnnWE4cVue57Dmw8UQAkvgRcacYONjwJGKA190IZvq9iJQCA58v+xt/ALroXKzSFDl8CFECHdQbyyL9ZlMJ5+XGe68lxQe/m513UqCm1HabtE7SnGAH8VUtvsXyRp+QUGhd3eXlftOHKKTKrOmcy0zlC4SQXyYGqbAAo0BAPo/dadWV8F82LklYUvXktiyuPQZhnQQXTMEPyl/UlwMiC07QBBejdoWqDCcCEvIEFmnrVZYKBijbI/8en5yBhdp5WaGg9etrIDhybgXCEYmm75QAhgLg4ZkX5pZW2d6Htc8sUk7geFzYLVG4DCgQtNfLrc8TEaOK6MghB9KoCCVYIoAYQoP3oB2EO6Gvj2DCeM0ljdkj4u/UQLFi9rw1OO6/36jAvQtOhWwUv/m09CQdrg240YPO3poRrGSxO5ifYTtyBZzn4+ChpH+uNUhTFMwgcPwkL5vm12kKbGwEDUFhnWrLv8a0KbKxqykA2E/us+dnoIeASDdHP/LgIrBMzMquTw9YzHAbTCoIBgXgQYOTj5nIpQhToYEnT+a5ulUNnAprGu1aQM7r6G9cFYVmuK2ZY9AFq0Mia+D3+BeQcYNU1XG+N0ILS4l72MrfFtMNlHpnnWmXKvSuZIF7AvqIhojP+5M4qvOs9rYfDobiIASxpxuZmb+Mdex5dq2sP7AFpri0WPumO7rdWUTQuJH83Nzzt4LIXKANAgN+bh3uTPf6P1oLDyTTWsVWl7rICOMS9ozmQYbPKPnyjVw/+n+QKZpViUUNzsg2fVIfnTAJ11q9cj6fQtzr8vyiigNssSiNAIVMOKJ63mnBnAQK0CyVXB60CQWyYqkl23g23quttbMjQhqHl2SwsDw7V4q9ziBQhaSPRkpipBXapZFY1zRNI/Po2GgFN4E9C5TYmV4BDDV0xijk42KrMzbRLEPAtzoLuzY/wJSDcXzCZ98D8fm/TOZwcJoSZ/89y37XWx70IduCBJu4QAazQ0QYEetCrPtCd5mQevmvDVE3TpZBVXbA7EG1i19fT8IrW5D4EoUOFsEXTqtmQ9mDD8+eWg846ArvmP+vw3t7ToemQsNaErPK3a2kF1hi/eQ/PqqZYoqV50ZjWCxz1noAQYO47DlA86mCyng4EPFR8pq4nPPEYID/LcPjxl9KSC384pGip3nUjsTjWmxZWBRJoQviW/HQgk7C1N4BL4HPWanelEBr+813AAk/aB8C8+7JSoE+9SU+Jx8E3rrMe6Alc2VvAjT0rWJpfG5DyO/zFFO6AkmIIMFoTrqkSNwWclXfAB6wMDitzxMuTGtQ57AA1Wj+a4BfgA4+zLKw3zNfBha5kFfcQOnAHSk3FFwCh+b3rXfla8h3QAd6XOcgmoJ97C3BepHus92QtPOKI/J6ATlUxobxw18wqS2d9f/yGp9Eb8KtbrOv3QXeg3nXOink7nXYWIDCr12v9e1kahRiEvrfFtcDeh1mWqdmG5Gpx8BH+dbdLMbkXJErgQcBK9QIQDg80qWuDJa2MQHBfgrikVNYPa0FLUpoIEALp4INnY1sM66BicqOJs+6Y70bAwHpPJvBsQMIG6mfWtEFLbnb9u2jl0LKhzIlAqgpINKWRlqAha0Prd7CyOthU1evdj2DhO6e50cIJ8UluLzS1JuZYNAY0Zj2YtRJl9X28I8HtUHUgsBAAy8zCMh/WonmdNg5JghHoXk8L9+wSuV4AjmdzJeAjIMUoz/UcGrVMA3NyCAIw62k61oWwBeLKfRwchLiDaVYLx2zcuukq710sScAPoOsABt4d5mW9HNprBTICe4ANS5+f1tZedj97mCaPLwA7lsJiwfFswNSe9c54Gch3eDlozMshZA7W2AFvfnjS34r7yN9KTJT951Byv2KNA25du577jRuMvLVnWeBY6dTmYP0zP3JgLYvVJJqTRcAXUOkAtf6ApT3AteHjUGXeZ00DnrgoyRxKD3DTtBWmOk8piPjXu3mvajaL51rraYX10Nf80R+fAuCssYa19S5ouBGL77z8vNb1Ze8v0geoswCBSZXAZpotwwvStjFYW4dPU4sy730IBpuUJuEww1g2C01BcAltDUNXUSoaFIHjQCuBgejmEKWFESq+Q3BA8usNG5uWwozF1Ehgz2LCwoBMiny48m9pKp7b5nBI0WIJN7QpXTkd2OUwRwe+62rMiL+5xnuVYjt1XiK0mOQICgBBWiEtm6D1/aJV07Sk4Ynu5r+so3NrQEg4wGlS5TncDkyuor0XHYSQ9SaguEysm33hvTxP9L/54hmHzFrvOsvzaeBoiB/Qpbhy0GVSDEBpg8sCQKMmkNcLKnZ/+9q7mKd3A37wED6chQdneY9ZrnGwyZTi9y/C3t60lxxqeMfhQSMDLNUzwWcUl3Ko0dhYXfAEZYZ1zf6g6Rcftz0JlAL57oWmvi8mgwZedXcBGJ7PwiHexXeZ8YEvYMRc3Uc5c4e7a+0L8xKvBeysB7LIhpIxAqSwRlDOgG8geNEgV+tIAaLA4E9gFOgBlMzJ382/dM9lLSmBu3iZu5McJOMADHvPe0zLdqqus/uhQwnKRnM0Iuu8J3lbtRYBq5QP61bPlFuLf1QzdF6Vhmv4wj6Rcoiv+zw6CxCYz5jpZjVT9nkR6nMHEPhjMTazH4TqcMFsVXMygUJ7rQqTcnAS6A460bM2m+vWC+iqzsFmomWXPNpiNl2PxgRRiba3WeruobbWR1yCjWjjez9C2IZHJ5qsA7r63jYvTRvNCB0CCMDwHRoUMy8t0O/4ELkISvqSiHfaDeBG2JU8fR3d3BNAoG37rsMbaKNZ4ONqkyCBnQ4dPtsmBmFHezV/a+ff3EUl+M8BQ9jRcKqaGUsRGkzS1tAJH/rpUDJfgIyFyIEyy7AmMk98x2HjEJykmZknAGHe/k47Y13xTO7EVQ8WhRJT4wAF9lhxrC8LAc3dQVqAKeuSg96wNqwpgIR9bF+J0wCmC2B0aLK2WAcAxf0djvMM+51FByBGaxY9rg33s17ruWnMnWURfxt4iHbMPA5ozptKut68ARmACY08h8wwN2Ccm84BzbJSqjoCEACkQ5sFi3WSEgIk2OMFaK1lagcyyVL3EytV3EcOcwCBK6yaGg/YccmiRwkGnKaMsvrKUvPxHPuGtcQ+X7b7ZB6emeXazgIEwoxPu+63m+WlhngNray0sC3vhxFLXn31nZlrme0w/qIlPh1ezK02HisOlLzeoE0SUg5Pvj3xAMscpescgVDqlBMu+KiaYiQjgMYNfNG8itWFgGLmpa0SiDY4QU5rRgeAxzMcqAAT8ykBgj+5eWgiDgs+XCABaCCgCQh5+9V1UBzJc2Y9aBelo/chiAEcP2loxZ1AONPGaKGTUvwcWmjj0CqBe65jHZq15DXtDW0IaAeDdUCLSQOtgS6WGjwHIJjDrC3FF6XRPN9DP/MBmgAuBzELDfN/NfirZHQ4nB1CzPb+7YBCB7zE4lXNHgBA8JwDzP5tIu2SJUOWAW0YsF1L8wZgxR6VdGr7B28KKq5mDM1Dq1muBTi5XsgNWVvo6jAG3qvaewm0LUHDQBewIMcf/clAoNzv8Ww1ABloxlNoDagCe/V4oupczUmRM/vEd6z3NHc2KyLaWmfPJ2PIagBhVdl2s9B/lmtWDhAgLgxZHwQqE6zAihiTKVCC7qrR/wR6EyU2CWkmTWZ0P6WbrRV5a3Z88IABLRoqrzfNWsYaEjA+DmrgwHxLIZxJzydwAAWaKrBAeyX0Hd71QiWuYZEByoADf6cFEgrF3FyCkvAszZcWyBdJeLknDdkBwbfrUFkm+C19QApAcHgDnT6TYhAIPGZsGpv5E5bTNKm1aGx/e2dgAUig+TmUqqZr9KBp4x3X07itJd9+V0ZJJ0VL4GqR6HtAAR0cZkUzL0W0pDA2ORx2+BDokG5HCy/Du5C9aEzWsraVrBNz42bBu9ybyxjmgQ4sIAB5tUifvcwyWlKmSzqvw9i/gTAgwPfxVDUTwd+9n7WiMJEH6w3ygPzgZmVBFSQLWAAVa623fQ/giGUApkunXkBvIwG2y6D7tGdMBAjMrLQsSLjt4VCx4epmLAFUImFL4Efb84j7X5ICAIiIY4KbhkSIM6dOSgXig4XWS0R13zfGWvxAsJZgR5pF1TzP146XmXeZaFnAmGnLYAIWH4A2hLXDcCyDNUPEPeABlJQaEOX9+WwJWsJcAKcPYY6fhjTsqUlKEXC6qK9/LfqUolMsF4IpS4M1cQH2KqDLKsbSRZMvFgZg2PpYky6Uoy4R+9X3BBqArSqQsK9Y96ryyf6c1bVapyO5h24sGqyCa/EiMIWni3ViSLJvIkCAIBXIYCppc9Cm+NgF5dT9oALqmCan5VK3Ob+4d9Z0+FoJFaY8GgnEXh9qNPCx0p6Buq73S2hjbQUf0sS4EPiRxT+UICXAwoGH14GEesBpG/Pp0j0LsCJT0AdYAjjLUKOBm8d+V9SHxutwUsgnxsYoUFKbpUM7vFjJaMiAirodrERiaMrwN4edvczSM9bBWshywbVkL3PZTFKOZNoALNyLQxsTAQJ0qVRmKW/a1kvz00g3kQpWNV8SJoLeBKs04Ytra/5jui+tQlQ28x9NQ/BdESrMg/xwNhQzHMS/SG5x3+nJGkbrKtHu/L8FTNlTTJXMl/NEYfedJvX5owNh63ASz8Bi4IDik6fh2u8CxGT0lOyLodFg2e9DnrLgsF5wddmj9i8LgtihOuAXgCnIUtBiALRsbeH+4dIQSMliUI0pYj0FfLnFhjYmAgQmVCi/3qyo6ZfHuDQqQU91CwKTNtNYdfD1CraqF8NxH/dgsm2qE6J71n2zBcQs4ottmnaruB9zpA/hIojRQUjoFMGjqU4pqczaMLYBPAnqYtpl1nTgMR0DBawrgpaA4mWm7XVtDUr1RQV40ItVhZYqhkX0uPQ8isFalfu69j59m4+9CsALxCs0FqNAISvttlkQ8KxsJJbAJrMY+kavMl+xCRQgwIniLF2VpVS8gbgaVi+WQZlP3Itt1nFYJg0nAoRSm3pSz4EmJ8d8oya9aNn6YMEgTKvRwQ4dfl7ErwKB0i2QFjvpXvPOGTAgqOptqG0uWrPgrTELeXTgHhLYJz1LYCLtWEATEMc0XC8ROu8a9PF6gABIYnIUYCvzw2F38sk5GAzgpp3h3yKM+/ieTc0ZXfCPLAvZLzJGRPP7OMBiNEuBUiqb+wDQZ6mxZ6XrijljJaSU2cvkrgOwVAmct017szPvzt3Qh4IkAJQ7jCIt+4RLjFwkE7lhZ62h0J03mzyTiQCBuYSJD8O0OQRBFpNN/TmAgyhQnzJEipoTv1kVOBC8zDsql8np3egoPerrhYUUfjEf/vZpqS8bnUMXv0/7K42ESpEegWd8mg5CNQX4kQWbidhnTWA+Xi+tqIvvueic1HSXksWELgIaoBWVDXDjV4BX2hTTuQqEszYpW3Q+Xf+eOCeaqkPKngIKWBUoBzSyGM1SgMIjfZRPXcyHmATArAyBiuSuANqS3UJrphQ5CGNsokCxsKinoG6KPW+IqSP/+tgKYNL6TgQItEBIqN5gog0GEXU6qe65amBy6auExti0UwxcjRTlzySc+S9FjlcHd4Do4LXMZN6x7kogyAksh1x1FOQoSn1S++M26NOVe6KTjQAIEDS0PohZyppUNPwi4he4oj3TThyEtGjoegyD5QAYQg+CFa1E4/u3gC//92E5Y0Hgdy8DfzK3DykCeq01xze0WQVzvLeATnFI9jewT0FRsGbMVrqm9wtgj7YKf+Ez+7M+gDN1KoBXRa2k8XLpSstkHYuR9zLwxGUoKBF4UhCsdDBFY+BLSmUp6NRnuq28DsJaxHPQMMfWD3uol3+3GgdQfGqYmDZbHQQQUxBLRX2IPJ1U8Y8QF9NQbXHqu9wODkG1yYeCEKcxb4nFIDyKO6EUzhHRW9qWVu/DROl7zJjqBKgiyETJXzcU31z1fUtNfz7betVEwJULjBmyuMUIFxpZlYf8jh9YWmS5Hx4vn2nr1Ie/AwalqRZrIJcC3gCUgAOClmbGeqnQlIOs9LPvw/t1dY7oLhgR8PKh4ZaiSNU5s5ACuXi2VGe171VTVK3UfhfntUj9h67SZpZ5lcZZYt8AplKTQeqjmAPF2QBaPymViqNRoKSK9t1K2FmAMMvCVa9xqIvKrRYN8nfBJQTRJGsILab0PKg/zyLX62hbfD5mm20M6ZelbC9NT0yBDUGA1Nsi12knr9r1ovi5IsQoAAYiooEL0ettNeCZl282ej2+UgNfgJ1UUJav0sDIQS8QjFWgWg+fNkeYVHO4ucgchnKtTzgh1wABhB2eKsb1fRCu3s1+LJ3l7CEHTrV1O5cMCwxQhR4shq7DQ03XCeg7TWedP+AFqAuS5Run9VZdC+U+5KcIfTxc0vlKIzbf494lL6uHHlcrUDvkQEbKqkBE7lN08b4sBAB+NdaA5Zm1RYE0hcGUD8fflCPWhD6OwQCEtYgPMEBzpVNf9TomTIfdrFotMzpwwGS+Vovd+jw8AzPN22Zz1czExSIgx/yl+PAT2xA2ySymXwcnMAWcCR4VeCawkY/eAQpsOBj6HiVN+PI/eg8aLwtWcROgAS2C5YTpdr3sFwIFb3FR4Fld8NQBIYBpfH0UwACS9VdHw7sACawk3tGemJTu6d3RFO+UYknApv/PWuJ51Xuna8/nqhUrRMtdb4iZ0TtD/EdVJjKb42UAQlp61YJAGXD/Wdtjd402681HEzZgXVYS3itu7Eldc92HtQUIIyO5YWUD4nEVWA08j/9ZWPsyBg8QmlwIJnOmNhGss6Y6SokBTuQUVzMvHCZd6/RFeyMkACppZzY+TYPWP69ZkaBXWEQ1MmWX+TRtEIeFGAXaM4EDndt8Gp3IDnFdnyoM0hoE29H0SxlXAoXVhXAhaJnLJ/l8q7zJmlU62zlACVy9CVhhZOZwkbl/H7Ro7hLdC7kIvUsBTYAOYDhtlG6Ovi+oE/8QskASC5Z6HDGmUwDQEt9hT/sJdK410FyRL25V2SWThj1db4oE+Nq39iwlyP7t82CJRidZHWLbpOF7P+nK0zITFKRCO3TkKgMwyDxgQeyC/wO7WkyjVx+y4QIgtMzNhWk08ynDAeJwXKsRDfO76NjqYUA4+n9de3cAzQpWPN/BXHzc5kEzYBkReEOLLTn8zNrVJkeLkMk9aS58mw43nTmL373EKPCJ0jLFd/g3OnlHAadAg4ZIsw6bEegqNHI/Zn/mapuR22i9AxYt/b3U3K8+lzbA/4g+4gzQ3KHl/oCjXhVlrqU7H1OsgFqCZRGXioNWvQA+T88pwlkalQAy71nSJeflg1lpOu06tHJw+EkoSpkDoIEdMSveHTCeh0c9k2DGF6wqBtCKDjKL6tXsgAYgytoBstVn2Tc+055f6gNU37c07ppGg678vextP/GK/UzDZw3E/2tZSkvQKIWAhYDLbNYhlgRAtge4zcThVAd3BheRNaivjTWZ1Xo763zmvQ6tvD/3SYmLAQxU+rSfAfVpvFN/JrBvf4qlqca+6YoqU0e8jYyR4mLk0iGbSvpzl/guAMK8HNXA9YQprbJe8KncmnDFsFWtnSbGNFU1s2IojDVrcSjPdViXlqT85jaHw9gmhpJlaFRTSBt43T9aIpiYaYKyVtYbDgIHO7MmDXqtNq71e3gPB5PNVTa03zmgbHJgxYZczz2iopw4idJqtvoMApDAcG+aLZoxNaKV1FeNbcrB5R0cbDI4So/4jdIR6ABSgAYHYnm2XHUuDZqb3zFpTooRKc2F5hV2a83bugBLeBVwQp8S1c3iREBW+1DM+/7M3O6r6Ew1Y4iVq+oupB0DUYCud1eoqrrGaMIHPK16Jc3Rfiz0caCJgWjareG+rHJ4hWZZWnTPQh8AyNriazyG/t4LfextfVP8Do9QQNyb5UDq4noAFRCj9XIBot0iKY3WRBEh9yjDmpiLOZo712xVVvk965K5ocmkuAj3QrN687RZ6LXWNaVxGR6mmOBdwep4mXziUhX7shFrncBOwEw8wqQ9Zy/b09xowLB3x2/2s5/cFJ5PofJ9603RQatFFA40JLPmBWQBEDbCaS1910FWLTRk8zPNQ6BV4Vjam86aGkfTsykdhH7aBAQgYNBmXQdWAaZyFgmBO20N1ho0KWmrNhOB6mf9b5MABiEpqJKQdOhXA1HdA638zdrYcOJQJgleAIdFQVBeG83GmI4Jf9o6wOfdaCXmZo0FktUH4eCgnASQvAvBuFa9Cgendyp09QwAtnTB9HtAiVATjNkECHHYKV2t5smk3h/l/RyWBLvDiLvHwVgdDv5JzeDq9CF8BZKVuRezsOuaeJ/q8wh4cSk0boJ/1vt7VxYy74NPS+C1efsbwI9v8SllAnBwwExzD7Jk0mgdZkBdk/0XAH0HMIBuPasp5eUd8B8ZtlbEP3noHb0HsO/9ihLhb97RPnegkmNVHgcC0BjN8DH5YE5M/g5ocxITRQY61PFwEwMwu9OdMmBdb32tG8sY/gOIWXOBYO9lziwwRSnxLv4NQExzd9TfwfWswvNYZP/I+xddVK8C0AR54h7LoAAGwuzVaPhpz7WRll24iIaiQAt/5bR2q9Pm34e/Ez6sJdwrTLttj3JgOzAABodifRDQ9Qyfcg3hRLObBDRJB+8DUBbBS6gRxg5u3wE0AYxZD7pZ6CGL48QTs68W4GHZWcRNwxoEQK317mUuNNRqoJ3rHUJo0+RwP4exQ8sB7uCbFeA7UO0lB6rDFMigOFhba7JokzTmdBYwloZlDsoOYIvWH/vYJSvXlrnQtsk5/OU9ZfdYG/zoA8wBqP5OvlUtEb4HFPie7xTZB1RYc8HFbQQN6s/Aqic2aZ4AY/sNv3onwJdS6Pvej7sCyFmkRlHJNsEz84wACPNQK65diAIEm6BHG9dBoibArEJxoQeu6EuAGmFNs/a+GlZ1JbrbQUnoTFIH/J5peK3CaAQywVI1uVq/ebWYeZaFVsX8ykRNYApsHVtxsnnotZFrpR2LF2FB6OIAIEomBb4ArvCfmCNWBYAL2AAEWPeqFoRifcC79iL54ztk0bzm9nloI71Z3BCAq+ZEtXPpPPdZ9bUBEFa9AiN4voNHgSmHEH+bdKE+ZSrMukQEgkBMWgwhxCe/ET/mrM8d4nUOhRL4hqYC55qOjRki3RZ5J24/cULT4oMWufcyvwMM1GM6gIA23adrvR9L3plnZgsPhYE1rI8jAEIfV62Hc+Y/s4H5qJUdlvY5tHHSSbkctehlAGFaQamhvX8b7yPoTg2OV7xifv9pG/MZyj0dWoB6ySBi6p8WyDmUd1/Ge5SqoeKEBH7XOxMvYw5NPCMAQhNUjHvMTIFDD80BQXLihzb0E2DmXC/ffGjvvIz3kSoqAl7EO8tTm66NZbxPF54hxkP2B/eCTKjttuvCrIY3B/ET4hy4HpuM0VkWpQIgLIvS8Zw/UkAhFtG6KraJrB+CsBcsyiSuRLBCQPWGYbH0G6OA8rWyGlThZPabUqMAABluSURBVHlSDjjGYhTgq+fDFx/DHC8eKGI7FqPlLN9iSZA9pEZIH2VdAIRZVjmuaYwC0opYEfgFpRSpTNlH0yZAIE2KwJVDLfVQszDvtssujZErblShAPeNg01hmRjzU4CbDw2BdL55WUVqdUxLg5z/SfGNKgVk4QhalnkizmPWujVdoGIAhC6swojmUPJ+RSUzxR9ySI5GXqSc8yrJJodd4BGhK/VIyh8NQXc3Uf8xmqeAINc99sgWBOCS6XbZKbvNv9Vy7gjASlfVsl4dAW4bdTyGmE20HIrO/hRKQ3ExAGVNFU+bfQaLXxkAYXHaxTc3QAG+ehXb5CYTUrrNiaYmtJoqVrKB6a35VZYDxXhYQmRmKP0L4HAtcJnEaI8CXDmHH57jPAAzZX2HmA3TJAWltdpj3F9if1i8uMAU4ImxHAqofaH4EXBmDfBtX+IRAiAsh0fiKTUKOGihajUS+Od0QvM75k7BfjZQF10PqvUxF0q5U1yGJhZjeRRwwMl1l/Yol13lQAVkCN4YF6eAALnSCwVQ0EkQzVRjDDC7XG6RwcU1ptujoFBVG5V07qKMq1ImAMJy+SSeNoECivhwOUDaSpSWxi5McUqDqkimU1ybhU2mLQzXiHnq0uiAOvjgXOK13jho2n3i7xungLoa2odrLKSIkpK2ghetRZjMN9GXhUt6qAqJKjYKlouxOgpw8aiPoGokq44S110PEA2AsDp+iSdPoIB87NL6mHADHPiZ+fa5IFRDq5Yuda2o7LWqAK5FZBYKwUJrNYipf8+BpIui8qevelVu2RpjdRSw3qwJ8su5HeT14wtlg60rE7qgMNYpuf745B73WE7p69VRJZcU5gLTrthBJE4DmA3gtMpV2fTs0jBP7BWlhzyTSdLVwMUACN3gm5jFGhQg+HW+1N2PhUHDkSrq1ndAMZJ56p17FEEKeCiDqqCRzINSz71MhZ9bLXRuhU99KvtxxRys1xEyFnJ1FNB+W3lm2pkYET9Lh06BpIou6YQ5y2CtYiGaBUC6ts5/DgIfQLQNf3O5Pz72YcLmmhPIycIljgdAYj3ws405zELHuOaSFLBeJ5+ceypox821ykqq34iskmrfk1XTLwDCqlcgnj8zBVgXzjgjC/oyZAwIcJy3DC+NkmYJABCoQAAXQnUQqnoQCITzHD7DVZRtnZlAceGaFBDYeJ/7zG5pYp3gp6fhrXe44qO9986aerkOfwIk+AnA0KDMoaDuQHU4CLhFJgFO99KcCvhgIeNKKaN6fzyszblnmYuYGN3+AN9wf3V/Q+BLnW65H5RmBjQVBVPAigJDGaryn7/jGz/xQbUJWXGDVuVjoYCS72TYvJakAAjd56GYYVAgKLBkCgAI556buw2uNzQPUsSJ0C6CnOWJABc4qdmUbpcCBrmnqsKesNbtc1KqJmEvo8c99EmQplhicLhX/FtaLcDKqub54gyivPeSGaWhx7EA4SVF5LTtLmAS0Kt2MQUmpaninXqHVsCABQmYrFu08NK97z1/9koAhIYWOG4TFAgKjI8CTP0Ee1Vro60RyPzKH/lItk4R7A7yqrVAZUhCflK7dvcTfwNsGHqYlIJGwIH7z+L+GN+K9PuN8ZN1ZzUq7Z6rHVgd/lxnACQLUdVyCnwqxAR01pvE+T9gMa9VKQBCv/kpZh8UCAoMkAIOBW4D1gLWga4GsQ2Q9J1+JWASX/gJIFatC21MPABCG1SNewYFggJBgaBAUKDnFAiA0PMFjOkHBYICQYGgQFCgDQoEQGiIqkyC/EJVf5FbMxHyNSq1WR2KlvAV8RtF2lxDixC3CQoEBYICQYHGKBAAYQIpHfSvfvXFU4vWozhQoCDLBz+Yi7dUh2hSgSTq9VcjmD/72RypKtdaIRM5sFJaRCX7ToCGxng8bhQUCAoEBYICC1Bg1ADBYa7QTl3rp+1raCJvetahMIn8VYVZ6mNSIRX5q6wLH/5wSscck8GCYhlSogQkqdQX9dJnpf74rsOz8t59DLwyb7Go8VEt3jgoEBSYhwKjBghSkJ7xjFwMpzoc1spgqpW9rKFQRqmupWqfCmj6EMhr5o4AMgAH6SoOgqiMtqyV6cZzFFQBaKW9KaULXPqd6pIsXopFKZAjFS7aTXdjzYY8i+JOxZOlwJgUunnT6IZMoyG826gBwvHH5y6CD33oJZeSsF1VnjFXhdLC3Ay/+lUumyqtBUjwO4BG+VRgQd6rNCiftlNehsDwfXoHQFWePCDwoQ9lHmAxkCfNFcVqAECqBIlP/NvPfffNHePwCsAQ7qo+rXr356p4lOJNivKo11AKOKnNoBcGuVSq/XX/bWKG61Fg1ADhcY/LWtckgLBKtmE+/sUv8mFgE7IuQOoODL/Te8AG9DsfFgUlYTfbbNNmLWWCt9giN7LRRczhcbOb5dKvcWiscoXXf7byz/oKaIWtgh4wQOiqqubA54oSr4IH/F/hFFYF1gQuKwVW/J7g5rLabrus2am8F5an7q57X2aGx1772hxkrfgO2YP3XvSi/Dv/V5ac5dO/w1Xal5W95DxHDRCUntQmVoOMvgzgoWiMzM20Sz8BCci+HABMgOq0+5uDAnjwO9rnQx6SDwwHTdf7kfdlXZqcJ8BqnQW2AngErZK7LATT4gyU9GV1AAYBSZYH6866dOCBuaxvsY5FMGyTqzbse5VAbFZXsmbHHVN61KMyXxqsWwK1KTZ6Cpx1VpZFW22V0l3vugnYLqtluxgvfB88vjG+HDxAYAKjjemcVR/Pe15GvTII+jxsXj5p1oVqwKVDwu+KqdmG0bKYZkrLfMpTMtKPsXoKWBuHO0F7l7uk9LKXZYAAwC0qVPG+kq14AJ+Xtsf2gudpn33b22YtT1CsjBoWKd/xTC62AJCr540uzAAPsRp84AM5eBvvAJqTACtLJ8XFTzFe/o23b33rDHi5v7hGWRZK1pZryKsyPI8ljfXTdcpUr7UPtPyu9sxwL/0xvvWt/F1tr1nPYsxPgcEDBNo2jYzgrbYJRirMqUXqmExgBUAcd1wGTQ9/eD4gmApjrI4C4k74bwE9TXcI4mnWgnlnWwWPnkOInnZartMBMLBUCJAFEDxbrAsrU3U4HFijgAc/m57jvO8U1y+HAvjl+c/Pz3r0o2d/ZuE5sV7PelYGDf7tQCeTHfysWtp01/sHFCBBmeFCW2sAG1U+pRDd4x65I+IjHpEtae7F1bb99jnYW+p5gN/p6zh4gMAc9rSnpfTYx2b0GiNTADh42MOy/3rbbVN65jMvCaCCVsujwKtelQXZ0Ucv75nlSfzH739/1vSucY2Udt45gwSWNy6p6nVa07oeQDj00JztQ8AvauVY/tvGExehAMvSkUdmq9Z977vIHS75HRo+HgM+ZOE4xJseLBenn555liVBWrvnPfWpKe2yS7auRlzO2lQfPEDQbvWJT0zp2GMn1yhomiH7dj8a4ymn5LoPdW2xb+/S5/kyxbJk8et2fRC6XBb2FsvTve6Vfc1hTej6yi0+Pwfs4x+f0u1vn9Ieeyx+n1V/U0wWcMBitvXW2VrnE2MyBQYPEGhl6hmcdFLk6E5iga98JaUTTsg+ui23zDEJXC8x2qcA82tp38rKtdtu2TTa9UG4sswJRGNRcGgI+C3tiLs+/5jf7BSw1m96U86k4pKibPU9ZoslQZqmoEoWM7FoMQYOEJiN+LdEr1aHksYveUlKb35zaDiTWIBZ+b3vzT3rzzgj0wqyjtE+BRSYURxLMBZzK5CwzTbtP7fJJ7z0pSldcEG2IsiDD3DZJHVXfy+uJjwp9kQWjQJufg5hcKuJxXr724fwNu28w2AsCO9+d0qveU3WYopPqfRUF2x11FHtEHAId6UlCBg64ICsCdIIw1zc/soKoGW9kT2gxgFB3LeAWTnxL35x5hdBXy9/eft0iycsjwIsjHvvndLZZ+c1HlKsyXnn5YwhcRDeLSxgl+SrQQAEKTEveEFK3/52jgSvjlJEaFKPhOVts348iStGoBAaDkkQdJX6ormBWq4F0dV9HHzTgI5gV+4pP6MIVx9XcvKc1dEQnMgkP7TB6izIVkYDq8jTnx5xWPU1HgRAYKqVgiOyWhGgGItRAMiSf3+5y6W0114pPfKRi90nvjUbBT7zmVxSW9xB3906rFD8uYJepT/GGAYFBDDLAnjlK4fxPvW3EFsB5AIHgi/vfOdhvueibzUIgCCnlpmTK2GeDoyLEm2o31OohEmROVFRFObjGM1TQLU5gVHKX6toecghuTFX38cOO6R0+OG5II6c9rAk9HdFWYIUKSIHgD9ZNkMdMhukecvIedCDhvqWi71XrwACRiVcVYirDu2ZIV3RtYEAF2OE6rf45qBpB1iM5imgoqES3w9+cI47wLdDaLQF6IgQ103yfvfL7xijnxQA9GQtCDpVaE655KEO8VeveEUuGPaYx2TQrrZHjJR6BRCYgxSUAQiqVbdovrIXCCXVsmJsjAIyG5RS1SgotMCN0XLSt1lmWBDe+Mbm773KOwLvwCWTNP+uUt4x+kcBMV0OShahPfccfnt5iuf73pfSc5+bLXkKKO2++zBA+0a5r1cAQcqiqG8R31ogV4cgEwEn0Y98oyyRTYr8yDTd0oxl43eNOxQKSLmVWqrY0NAGbezUU3OTKHs1Rv8ooBAWcOeQlNE0hkEp+vjHc4lzMVgHHZQtYWMfvQIIhA6zl0BEdeNjtEcBYIugV1o1RrMUEC8j8v+II5q9bxfuBlwSsix9J54YFqgurMmscwDuWGe5FgXP7rdfjicZ0/De+j6IRZDdMPbRK4CgoIXIb4sXaYvtsi7BwFJz4xvnjn91i027Tx/m3VVNpKmwHAiI6kNZ5UVWQiaDAjTeU2ZR1LpfhIrL/46CV4p16b+hU6NeLde97vLnsconco994hO5Joyg97GPXgGE170u1zrQN2Ao1by6yoCQtOqKNF2mxgg42/hK3f/+uUSxAl6ah6l/MMShhK1sIjVIBA3rGKrKYoxuU0ADNw24AFfAgIm93mGx22+w8dmJD1JRVkOqNppHbXyGy71DZwGCEp+iSqvDocUnzoIQJV3bZRSmYmvAVKxokrapMTZGAV0z9QRRL0DVwaEGgDJVs5TQxLgbHvjAKECzMc5ZzrcBuyc9KfPoWKP4VVXUX0TpcL1pxj46CxD4Z1WZI0zLoJEwe6nYNjZkuwpGlR8sD/rcc1N68pMzUIgKi4uthEwbxZC++MXx9KEX5KpXg+yivheCWmzV+/EtaeMlSE9mDUvtWN1CeFY/GmBeHBa+HSqQn4U7OwsQ+ICkm+gNUB1jZdxZFrONa975zizkxSTc9KYp3epW4zngmqQn15iKieoEjEXgfPe7ucCO0t197wDYJC907V5qABx9dO4Jwp346Ed3bYbLm49UelUjWRLsVVaVMbvHOgsQdt01l78UKBdjdRQQgyBwR8dBbgfpTwRJjNkooIyrehLoR/DIwhlLIyzdVR02N795Sje7Wfbp9q0Z1Wyr3O+rFOy6wQ1y3MgVrhAKADknTkiKJ+DUtw6rTXLjygGCdrc0jfoQBa3uQQQjNrnci9/ra1/LAUwKKFkTQYtXulIuJjKEKoCLU2b9b8qtVvdAESGZICrUjcUKpnjZ8cdnF5X3Zw284x3bonTcd1EKWBOFkWQrxdhEAYGKd7tb7vg41rFSgMDHTbvYd99LHjKEqMC4sWhbXWfAX/86pXe8I4M50c40Y4FM/HSC0AIkTF5BtQDkVd/pTild73oXj6np+po3MT959T6sUPLrWQW11ZXmORag1AQd27gH+Sug9CY3SUkK+dhSGqfR9AlPyEWTWFYExY+xaNxEgIBp5MIqudnmoFkcdlhOK6kDAX7aOHTapP7898YPeEMjFxkm/Oof/GC2LChRag1D6F+crixhTJaKe43ZvP6tb+XIcPVLmLG5qqoByPNzY3xjIxQ4//yUjj02JZbBs87Kexlwi7GJAix/ipqp5aEuxHOeMz75NhEgAAdyYSeZ/ptkIPXa5Uk7YGL0iwJ8dOITHv/4lD75yZSuda28gcbsr6uvIEBFY1aRTe2OMVvDgKQLL8yps0DTjjumdJvb5Fz7OJiWv/eln77tbbmtO/5k3YpxcQqwmipu5rP//jlYW/wVS8JYsugmAgTCvwRqtM00hOaYBWfb9G3z/viEmdJBSCOUyifTgclyq63afHK37y1tTBXBZz87p4X6uc8+3Z7zsmaHNi97WUrHHJP5BYCSBjmWzI5l0Xm959i3r351VgDVlLnqVbswq+7OAZ8C+LIa0EockSJnrKVDt5iuNAahuywRM5uXAtKBXv/6HJDGfKnc7hg20CQ6CchTN4JWJvaAv33M7oU6jSgfXFXiM/CL1DoBnNH3Y95dN9/1gkZZDrgWaMWAmRRUfvYY61MAv7J4Swk95ZQcoC3LYfvtszVB/MYQLWEBEGJnNEqBX/4ybxYbSRDjFluMLxOF8D344GyWJEBiTKaAUt74RHwC94PKi2FJaI9bpJ0yk0u7ZdECYKNj4Xz0trcLvyoqpcAUVysL6k47ZbAwJPdDAIT5+COunoECGr5o/CKYUbMn5ji+OwVHxuBOUmyFSfKoo6Ke+zRTN82Mr3fnnbPb4SpXycGLNLQYzVFA1tEPfpDdO6oD7r13c/ce6524V7lrXv7ylM48M2fk3fCGmZeHYk0IgDBW7m7xvcUk+HAz6OVQ0oNEA9s4Bx44zAMAMKCh0SpUYiu9Q1ok9WBurbS6dEgAUqAr60uMZijAtXDIISn5iUcPOiil7bZr5t5xlxzLcdppWSmSAi6jS7aO9Mi+W2gCIASHt0YBwT3nnZcStwMznAj2D30oxybwywtk5AMdilkZIFDHXXEV78e3PpR3a41J/t+NuRiYvvGL8sxiN9BPJdWhB4K1TVsdRG93u2yhkc+vzwCwHqM5CpTmdgqjAQzvfW+msY+Mnb52ww2A0ByPxJ3WoQBTMg2GlsjXzOQpqJFJ2WHKfydQTb5xn/LjmRjlkHuvF74wZ3GIDAcMorHV/FsCXxCun/lMTp/lluIrL2ZbJtwxFqyZn5I5EPTLX87lvdU6EFxnBOBahJqzfafIOcG3aC9r58gjs6t1881T2m+/XI22LyMAQl9WakDztIl8FFuiMdJw+PCYP7kmlOd1uG62WXZJlM8qSUBDYAkBcgz+R6Dgm9/M0fj+rbCXDqRqQsRYnAJozE2js96Pf5zSRz6SkoBG2SH6OaiwqtgS8IBPLn/5AGOTqK1UvXo2ou/VK7nrXRdfk/jmfBSgOBRZcfbZWYlgPeV25X5QxpmFTEAjXgfauiDn6m8ZAGG+dY+rW6SATfW4x+UDAVCwcfyOT1o5boGOrAzVKGGaumyJSdq6DUojBUbKsBHlMrve3/3N79zT/30807P9jVukuEbe9KYsbIsWJnXRpuZSuP/9Q7NtkTX+eGu0F1wn2I77inZmvRT64estmjGzLheFDJLLXjan8fmbf4txsL4+i6ThLlP7Nscq31bpW/1b+X15L0GfwBR+5bpRiM4eibFaCvzoRymdc05u+a4HEZBrnawRvtIpV3q0XjfWaxKvrcWzk64tPLIRng2AsFqeiaevQQEaO0FHayfolHR2IDgY6sKRX9WnPkrkdjUOwPchd6ZqvQGYAh3yXAOsGTar5wo4AhpYBQABmxl4YR0om9SBEzEGq2FhAJIVx4elQQpfGXzAp56awWGJdwEMNCWSgouPXO9v83QvLNcvo24AcOrw8H74kCuuDH8z/wJWy+9lDeFdBX24Z3zvYQ9Lac89h5V6txqOa+6p5Je6MWQNRUXAqH+fcEJuUEg27bJLtozVhzX1+7qSJOun+ju8URQs8gv/ANHz8m4AhObWPe7UIgVKdc+6UCQo5SU7DOrDZuD3cwiUYSNyYQAgrBGqPnJtQPUsCwIngQJNqGysak+QjSDxFkkTt65RwNoCECXmRfAj7U0QqTW0pngDTzlQiyl4GiELDy4jBROIwevma47cKYX//N7v6uAUYMWzCk4pYc/iFiB22qp24+94C8+qs6AENkvDJCsRwIg3qn/D74BG1UoEXJbhO0CHstpbbjnf+wZAmI9ecfUAKDDJ9NaEOW4ApBnsK5Sy4H6yJhSXFKE8SRBPIgQgwZfMqtX2cPiLweEuIew9twxz51apB2v6fQENAWbbXqH27r8eP1bdoGUGAIM4rqorlVVUuiV+oBThoWtec/708gAI7a1z3DkoEBQICgQFggK9pUAAhN4uXUw8KBAUCAoEBYIC7VEgAEJ7tI07BwWCAkGBoEBQoLcUCIDQ26WLiQcFggJBgaBAUKA9CgRAaI+2ceegQFAgKBAUCAr0lgIBEHq7dDHxoEBQICgQFAgKtEeBAAjt0TbuHBQICgQFggJBgd5SIABCb5cuJh4UCAoEBYICQYH2KBAAoT3axp2DAkGBoEBQICjQWwoEQOjt0sXEgwJBgaBAUCAo0B4FAiC0R9u4c1AgKBAUCAoEBXpLgQAIvV26mHhQICgQFAgKBAXao0AAhPZoG3cOCgQFggJBgaBAbykQAKG3SxcTDwoEBYICQYGgQHsUCIDQHm3jzkGBoEBQICgQFOgtBQIg9HbpYuJBgaBAUCAoEBRojwIBENqjbdw5KBAUCAoEBYICvaVAAITeLl1MPCgQFAgKBAWCAu1RIABCe7SNOwcFggJBgaBAUKC3FPi/UYZp7xaVdBEAAAAASUVORK5CYII=;shadow=0;" vertex="1" parent="1">
          <mxGeometry x="207.86" y="578.1" width="119.28" height="43.81" as="geometry" />
        </mxCell>
        <mxCell id="5-N-sKKjPVEW2un69Wxj-155" value="" style="rounded=0;whiteSpace=wrap;html=1;shadow=0;labelBackgroundColor=#5EA9E1;fontFamily=Helvetica;fillColor=none;" vertex="1" parent="1">
          <mxGeometry x="202.5" y="578.1" width="130" height="50" as="geometry" />
        </mxCell>
        <mxCell id="5-N-sKKjPVEW2un69Wxj-156" value="&lt;meta charset=&quot;utf-8&quot;&gt;&lt;span style=&quot;color: rgb(0, 0, 0); font-family: Helvetica; font-size: 12px; font-style: normal; font-variant-ligatures: normal; font-variant-caps: normal; font-weight: 400; letter-spacing: normal; orphans: 2; text-align: center; text-indent: 0px; text-transform: none; widows: 2; word-spacing: 0px; -webkit-text-stroke-width: 0px; background-color: rgb(251, 251, 251); text-decoration-thickness: initial; text-decoration-style: initial; text-decoration-color: initial; float: none; display: inline !important;&quot;&gt;Sensor Signal&lt;/span&gt;" style="text;whiteSpace=wrap;html=1;fontFamily=Helvetica;" vertex="1" parent="1">
          <mxGeometry x="231.25" y="638.1" width="77.5" height="30" as="geometry" />
        </mxCell>
        <mxCell id="5-N-sKKjPVEW2un69Wxj-159" value="" style="edgeStyle=orthogonalEdgeStyle;rounded=0;orthogonalLoop=1;jettySize=auto;html=1;fontFamily=Helvetica;entryX=0.521;entryY=0.975;entryDx=0;entryDy=0;entryPerimeter=0;" edge="1" parent="1" source="5-N-sKKjPVEW2un69Wxj-157" target="5-N-sKKjPVEW2un69Wxj-125">
          <mxGeometry relative="1" as="geometry" />
        </mxCell>
        <mxCell id="5-N-sKKjPVEW2un69Wxj-157" value="" style="rounded=0;whiteSpace=wrap;html=1;shadow=0;labelBackgroundColor=#5EA9E1;fontFamily=Helvetica;fillColor=none;strokeColor=#FF0000;" vertex="1" parent="1">
          <mxGeometry x="245" y="570" width="45" height="68.1" as="geometry" />
        </mxCell>
        <mxCell id="5-N-sKKjPVEW2un69Wxj-163" value="" style="rounded=0;whiteSpace=wrap;html=1;shadow=0;labelBackgroundColor=#5EA9E1;fontFamily=Helvetica;fillColor=none;dashed=1;" vertex="1" parent="1">
          <mxGeometry x="160" y="260" width="220" height="70" as="geometry" />
        </mxCell>
        <mxCell id="5-N-sKKjPVEW2un69Wxj-176" value="" style="edgeStyle=orthogonalEdgeStyle;rounded=0;orthogonalLoop=1;jettySize=auto;html=1;fontFamily=Helvetica;fontSize=12;fontColor=default;" edge="1" parent="1" source="5-N-sKKjPVEW2un69Wxj-173">
          <mxGeometry relative="1" as="geometry">
            <mxPoint x="505" y="460" as="targetPoint" />
          </mxGeometry>
        </mxCell>
        <mxCell id="5-N-sKKjPVEW2un69Wxj-173" value="Permute Layer" style="rounded=0;whiteSpace=wrap;html=1;strokeColor=#000000;strokeWidth=2;fontFamily=Helvetica;fontSize=12;fontColor=default;fillColor=#E6D0DE;" vertex="1" parent="1">
          <mxGeometry x="430" y="480" width="150" height="20" as="geometry" />
        </mxCell>
        <mxCell id="5-N-sKKjPVEW2un69Wxj-191" style="edgeStyle=orthogonalEdgeStyle;rounded=0;orthogonalLoop=1;jettySize=auto;html=1;exitX=0.5;exitY=0;exitDx=0;exitDy=0;entryX=0.5;entryY=0;entryDx=0;entryDy=0;fontFamily=Helvetica;fontSize=12;fontColor=default;" edge="1" parent="1" source="5-N-sKKjPVEW2un69Wxj-178" target="5-N-sKKjPVEW2un69Wxj-133">
          <mxGeometry relative="1" as="geometry" />
        </mxCell>
        <mxCell id="5-N-sKKjPVEW2un69Wxj-178" value="&lt;span style=&quot;color: rgb(0, 0, 0); font-family: Helvetica; font-size: 12px; font-style: normal; font-variant-ligatures: normal; font-variant-caps: normal; letter-spacing: normal; orphans: 2; text-align: center; text-indent: 0px; text-transform: none; widows: 2; word-spacing: 0px; -webkit-text-stroke-width: 0px; text-decoration-thickness: initial; text-decoration-style: initial; text-decoration-color: initial; float: none; display: inline !important;&quot;&gt;&lt;br&gt;Transformer Encoding Layer&lt;/span&gt;" style="verticalAlign=middle;align=center;overflow=fill;fontSize=12;fontFamily=Helvetica;html=1;rounded=1;fontStyle=0;strokeWidth=2;fillColor=#E6D0DE;" vertex="1" parent="1">
          <mxGeometry x="420" y="420" width="170" height="40" as="geometry" />
        </mxCell>
        <mxCell id="5-N-sKKjPVEW2un69Wxj-181" value="" style="rounded=0;whiteSpace=wrap;html=1;shadow=0;labelBackgroundColor=#5EA9E1;fontFamily=Helvetica;fillColor=none;dashed=1;" vertex="1" parent="1">
          <mxGeometry x="413" y="230" width="190" height="120" as="geometry" />
        </mxCell>
        <mxCell id="5-N-sKKjPVEW2un69Wxj-182" value="" style="endArrow=none;dashed=1;html=1;rounded=0;fontFamily=Helvetica;entryX=0;entryY=0;entryDx=0;entryDy=0;" edge="1" parent="1" target="5-N-sKKjPVEW2un69Wxj-181">
          <mxGeometry width="50" height="50" relative="1" as="geometry">
            <mxPoint x="380" y="260" as="sourcePoint" />
            <mxPoint x="430" y="210" as="targetPoint" />
          </mxGeometry>
        </mxCell>
        <mxCell id="5-N-sKKjPVEW2un69Wxj-183" value="" style="endArrow=none;dashed=1;html=1;rounded=0;fontFamily=Helvetica;entryX=0;entryY=1;entryDx=0;entryDy=0;" edge="1" parent="1" target="5-N-sKKjPVEW2un69Wxj-181">
          <mxGeometry width="50" height="50" relative="1" as="geometry">
            <mxPoint x="380" y="330" as="sourcePoint" />
            <mxPoint x="460" y="195" as="targetPoint" />
          </mxGeometry>
        </mxCell>
        <mxCell id="5-N-sKKjPVEW2un69Wxj-184" value="" style="edgeStyle=orthogonalEdgeStyle;rounded=0;orthogonalLoop=1;jettySize=auto;html=1;fontFamily=Helvetica;fontSize=12;fontColor=default;" edge="1" parent="1" source="5-N-sKKjPVEW2un69Wxj-185">
          <mxGeometry relative="1" as="geometry">
            <mxPoint x="505" y="290" as="targetPoint" />
          </mxGeometry>
        </mxCell>
        <mxCell id="5-N-sKKjPVEW2un69Wxj-185" value="Permute Layer" style="rounded=0;whiteSpace=wrap;html=1;strokeColor=#000000;strokeWidth=2;fontFamily=Helvetica;fontSize=12;fontColor=default;fillColor=#B9E0A5;" vertex="1" parent="1">
          <mxGeometry x="430" y="310" width="150" height="20" as="geometry" />
        </mxCell>
        <mxCell id="5-N-sKKjPVEW2un69Wxj-198" value="" style="edgeStyle=orthogonalEdgeStyle;rounded=0;orthogonalLoop=1;jettySize=auto;html=1;fontFamily=Helvetica;fontSize=12;fontColor=default;" edge="1" parent="1" source="5-N-sKKjPVEW2un69Wxj-186">
          <mxGeometry relative="1" as="geometry">
            <mxPoint x="504.9655172413793" y="230" as="targetPoint" />
          </mxGeometry>
        </mxCell>
        <mxCell id="5-N-sKKjPVEW2un69Wxj-186" value="&lt;span style=&quot;color: rgb(0, 0, 0); font-family: Helvetica; font-size: 12px; font-style: normal; font-variant-ligatures: normal; font-variant-caps: normal; letter-spacing: normal; orphans: 2; text-align: center; text-indent: 0px; text-transform: none; widows: 2; word-spacing: 0px; -webkit-text-stroke-width: 0px; text-decoration-thickness: initial; text-decoration-style: initial; text-decoration-color: initial; float: none; display: inline !important;&quot;&gt;&lt;br&gt;Transformer Encoding Layer&lt;/span&gt;" style="verticalAlign=middle;align=center;overflow=fill;fontSize=12;fontFamily=Helvetica;html=1;rounded=1;fontStyle=0;strokeWidth=2;fillColor=#B9E0A5;" vertex="1" parent="1">
          <mxGeometry x="420" y="250" width="170" height="40" as="geometry" />
        </mxCell>
        <mxCell id="5-N-sKKjPVEW2un69Wxj-192" style="edgeStyle=orthogonalEdgeStyle;rounded=0;orthogonalLoop=1;jettySize=auto;html=1;exitX=0.5;exitY=1;exitDx=0;exitDy=0;fontFamily=Helvetica;fontSize=12;fontColor=default;" edge="1" parent="1" source="5-N-sKKjPVEW2un69Wxj-133" target="5-N-sKKjPVEW2un69Wxj-133">
          <mxGeometry relative="1" as="geometry" />
        </mxCell>
        <mxCell id="5-N-sKKjPVEW2un69Wxj-203" style="edgeStyle=orthogonalEdgeStyle;rounded=0;orthogonalLoop=1;jettySize=auto;html=1;exitX=0.5;exitY=1;exitDx=0;exitDy=0;fontFamily=Helvetica;fontSize=12;fontColor=default;" edge="1" parent="1">
          <mxGeometry relative="1" as="geometry">
            <mxPoint x="505" y="350" as="sourcePoint" />
            <mxPoint x="505" y="350" as="targetPoint" />
          </mxGeometry>
        </mxCell>
        <mxCell id="5-N-sKKjPVEW2un69Wxj-204" value="" style="endArrow=classic;html=1;rounded=0;fontFamily=Helvetica;fontSize=12;fontColor=default;exitX=1;exitY=0.5;exitDx=0;exitDy=0;" edge="1" parent="1" source="5-N-sKKjPVEW2un69Wxj-205">
          <mxGeometry width="50" height="50" relative="1" as="geometry">
            <mxPoint x="500" y="380" as="sourcePoint" />
            <mxPoint x="505" y="330" as="targetPoint" />
            <Array as="points">
              <mxPoint x="505" y="370" />
            </Array>
          </mxGeometry>
        </mxCell>
        <mxCell id="5-N-sKKjPVEW2un69Wxj-205" value="\begin{equation} \mathrm{x}_{temporal} \in \mathbb{R}^{C \times L} \end{equation}" style="text;whiteSpace=wrap;html=1;fontSize=12;fontFamily=Helvetica;fontColor=default;" vertex="1" parent="1">
          <mxGeometry x="380" y="350" width="110" height="40" as="geometry" />
        </mxCell>
        <mxCell id="5-N-sKKjPVEW2un69Wxj-209" value="" style="endArrow=classic;html=1;rounded=0;fontFamily=Helvetica;fontSize=12;fontColor=default;exitX=1;exitY=0.5;exitDx=0;exitDy=0;" edge="1" parent="1" source="5-N-sKKjPVEW2un69Wxj-210">
          <mxGeometry width="50" height="50" relative="1" as="geometry">
            <mxPoint x="500" y="540" as="sourcePoint" />
            <mxPoint x="505" y="500" as="targetPoint" />
            <Array as="points">
              <mxPoint x="505" y="540" />
            </Array>
          </mxGeometry>
        </mxCell>
        <mxCell id="5-N-sKKjPVEW2un69Wxj-210" value="\begin{equation} \mathrm{x}_{channel} \in \mathbb{R}^{L \times C} \end{equation}" style="text;whiteSpace=wrap;html=1;fontSize=12;fontFamily=Helvetica;fontColor=default;" vertex="1" parent="1">
          <mxGeometry x="380" y="520" width="105" height="40" as="geometry" />
        </mxCell>
        <mxCell id="5-N-sKKjPVEW2un69Wxj-217" value="\begin{equation} \mathrm{y}_{angles} \in \mathbb{R}^{N} \end{equation}" style="text;whiteSpace=wrap;html=1;fontSize=12;fontFamily=Helvetica;fontColor=default;" vertex="1" parent="1">
          <mxGeometry x="228.75" y="130" width="77.5" height="40" as="geometry" />
        </mxCell>
      </root>
    </mxGraphModel>
  </diagram>
</mxfile>
